# xmcd CD database file
#
# Track frame offsets:
#	150
#	18574
#	40885
#	61622
#	86007
#	107520
#	131017
#	150871
#	173133
#	192910
#	217224
#
# Disc length: 3207 seconds
#
# Revision: 0
# Processed by: cddbd v1.5.1PL0 Copyright (c) Steve Scherf et al.
# Submitted via: CDex 1.51
#
DISCID=8b0c850b
DTITLE=The Braxton Brothers - Now and Forever
DYEAR=1999
DGENRE=Jazz
TTITLE0=Kickin' Back
TTITLE1=A Night to Love
TTITLE2=Can We Try Again
TTITLE3=Do You Remember
TTITLE4=Angelina
TTITLE5=Just Believe
TTITLE6=All My Love
TTITLE7=Saying Goodbye
TTITLE8=Before You
TTITLE9=Chance Encounter
TTITLE10=Now and Forever
EXTD=YEAR: 1999
EXTT0=
EXTT1=
EXTT2=
EXTT3=
EXTT4=
EXTT5=
EXTT6=
EXTT7=
EXTT8=
EXTT9=
EXTT10=
PLAYORDER=
